#!OML:ASF F:\VICON\USERDATA\INSTALL\rory3\rory3.ASF
:FULLY-SPECIFIED
:DEGREES
3026
root 1.01862 18.884 0.218027 -276.674 -83.6137 287.164
lowerback 12.111 -1.03888 -5.71019
upperback 5.50282 -2.44865 -5.0932
thorax -1.01013 -1.393 -1.7842
lowerneck -9.9562 9.01494 -4.76015
upperneck 22.3357 12.4986 1.69004
head 8.14316 5.46424 2.49204
rclavicle 1.27222e-014 3.81667e-014
rhumerus -5.665 32.8307 -85.9444
rradius 121.337
rwrist -13.2944
rhand -37.7303 14.4055
rfingers 7.12502
rthumb -10.7792 -15.2979
lclavicle 1.27222e-014 3.81667e-014
lhumerus 14.8867 -26.1316 79.9776
lradius 39.5963
lwrist -6.60459
lhand -30.9989 14.3839
lfingers 7.12502
lthumb -4.28211 44.3206
rfemur -23.6394 11.8948 11.6633
rtibia 31.0082
rfoot -6.99254 -29.341
rtoes 2.11607
lfemur -23.1321 -3.34386 -9.85365
ltibia 28.6898
lfoot -12.7015 10.5834
ltoes -8.06079
3027
root 1.04875 18.8856 0.234877 -279.74 -83.1114 290.501
lowerback 12.1408 -1.07229 -5.81554
upperback 5.5705 -2.50205 -5.07767
thorax -0.949072 -1.4232 -1.70354
lowerneck -10.0576 9.00249 -4.72335
upperneck 22.0123 12.4633 1.80417
head 8.04735 5.48169 2.51333
rclavicle -1.59028e-014 -6.36111e-015
rhumerus -5.12464 33.0371 -85.8927
rradius 120.488
rwrist -12.6303
rhand -38.5091 14.652
rfingers 7.12502
rthumb -11.5303 -15.0109
lclavicle -1.59028e-014 -6.36111e-015
lhumerus 16.1088 -25.9299 79.3982
lradius 38.6256
lwrist -6.90949
lhand -29.496 14.0113
lfingers 7.12502
lthumb -2.8307 43.9722
rfemur -23.9507 11.9837 11.8333
rtibia 31.0383
rfoot -6.55763 -29.4257
rtoes 2.93753
lfemur -23.7602 -3.02632 -9.49135
ltibia 28.8543
lfoot -11.901 10.1013
ltoes -14.9057
3028
root 1.07754 18.8855 0.253907 -282.545 -82.6369 293.458
lowerback 12.3175 -1.12967 -5.9902
upperback 5.65751 -2.6064 -5.00808
thorax -0.940378 -1.47994 -1.51771
lowerneck -10.2416 8.99843 -4.86167
upperneck 21.7849 12.4885 1.86513
head 7.98973 5.50198 2.55717
rclavicle -2.22639e-014 -4.13472e-014
rhumerus -4.54645 33.3939 -85.7561
rradius 119.622
rwrist -11.8938
rhand -39.2106 14.5748
rfingers 7.12502
rthumb -12.2067 -15.049
lclavicle -2.22639e-014 -4.13472e-014
lhumerus 17.2543 -25.3915 79.0579
lradius 37.4979
lwrist -7.60088
lhand -28.5241 13.3716
lfingers 7.12502
lthumb -1.89211 43.343
rfemur -24.1218 12.0662 11.9625
rtibia 31.0726
rfoot -6.34504 -29.4578
rtoes 3.20175
lfemur -24.2327 -3.0009 -9.16509
ltibia 28.9961
lfoot -11.6038 9.70143
ltoes -16.9282
3029
root 1.10671 18.8865 0.274488 -285.697 -82.2732 296.767
lowerback 12.4848 -1.19801 -6.18889
upperback 5.74988 -2.73482 -5.058
thorax -0.924039 -1.54998 -1.44079
lowerneck -10.4334 8.96944 -4.96657
upperneck 21.6091 12.4515 2.03443
head 7.94673 5.50408 2.62752
rclavicle 1.59028e-014 1.59028e-014
rhumerus -3.96506 33.5295 -85.7049
rradius 118.795
rwrist -11.4894
rhand -39.2772 14.5478
rfingers 7.12502
rthumb -12.271 -15.0722
lclavicle 1.59028e-014 1.59028e-014
lhumerus 18.368 -24.9132 78.6684
lradius 36.3016
lwrist -8.48377
lhand -28.0961 13.1205
lfingers 7.12502
lthumb -1.47869 43.0951
rfemur -24.2061 12.0434 11.9145
rtibia 30.9717
rfoot -6.17458 -29.4554
rtoes 3.77432
lfemur -24.6738 -3.31158 -8.96655
ltibia 29.0839
lfoot -11.5296 9.45978
ltoes -16.5729
3030
root 1.13502 18.8869 0.293454 -287.586 -81.8319 298.967
lowerback 12.436 -1.19659 -6.21082
upperback 5.82201 -2.73096 -5.14058
thorax -0.824703 -1.55183 -1.51909
lowerneck -10.5183 8.89376 -5.01122
upperneck 21.2953 12.3135 2.29517
head 7.83946 5.48076 2.69784
rclavicle -9.54166e-015 -3.49861e-014
rhumerus -3.43447 33.4021 -85.6851
rradius 117.999
rwrist -11.2841
rhand -38.8581 13.8964
rfingers 7.12502
rthumb -11.8668 -15.7473
lclavicle -9.54166e-015 -3.49861e-014
lhumerus 19.4609 -24.8558 78.1411
lradius 35.2586
lwrist -9.17215
lhand -27.35 13.1044
lfingers 7.12502
lthumb -0.758118 43.0828
rfemur -24.5117 12.1658 11.912
rtibia 30.9182
rfoot -6.00769 -29.4474
rtoes 4.24978
lfemur -25.308 -3.36437 -8.68155
ltibia 29.222
lfoot -11.3997 9.15138
ltoes -16.4611
3031
root 1.14419 18.8938 0.345208 -291.41 -81.3125 301.924
lowerback 13.577 -1.21228 -5.8878
upperback 6.19598 -2.83335 -5.3001
thorax -1.06971 -1.60782 -1.82583
lowerneck -10.5778 8.85297 -4.96815
upperneck 21.0567 12.2272 2.4461
head 7.7653 5.47219 2.72605
rclavicle -1.59028e-015 -1.59028e-014
rhumerus -2.90999 33.4354 -85.6574
rradius 117.175
rwrist -10.9666
rhand -38.8981 12.589
rfingers 7.12502
rthumb -11.9054 -17.0525
lclavicle -1.59028e-015 -1.59028e-014
lhumerus 20.4891 -24.9118 77.5295
lradius 34.2552
lwrist -9.37565
lhand -26.582 12.7432
lfingers 7.12502
lthumb -0.0163495 42.723
rfemur -23.3472 12.3172 12.0231
rtibia 30.7838
rfoot -6.01263 -29.3863
rtoes 4.63575
lfemur -24.6477 -4.77812 -8.53875
ltibia 29.3613
lfoot -11.4181 9.83605
ltoes -16.6381
